<svg version="1.2" xmlns="http://www.w3.org/2000/svg" viewBox="0 0 528 528" width="20" height="20">
	<style>
		.s0 { fill: #ffffff;stroke: #000000;stroke-miterlimit:100;stroke-width: 17.7 } 
		.s1 { fill: #000000 } 
	</style>
	<path id="1" fill-rule="evenodd" class="s0" d="m260 511.15c-138.65 0-251.15-112.5-251.15-251.15 0-138.65 112.5-251.15 251.15-251.15 138.65 0 251.15 112.5 251.15 251.15 0 138.65-112.5 251.15-251.15 251.15z"/>
	<path id="3" fill-rule="evenodd" class="s1" d="m377.5 194l115.4 66.9-115.4 67z"/>
	<path id="3 copy" fill-rule="evenodd" class="s1" d="m193.3 152.4l67-115.4 67 115.4z"/>
	<path id="3 copy 2" fill-rule="evenodd" class="s1" d="m143.4 327.9l-115.4-67 115.4-66.9z"/>
	<path id="3 copy 3" fill-rule="evenodd" class="s1" d="m327.3 367.7l-67 115.4-67-115.4z"/>
	<path id="2" fill-rule="evenodd" class="s1" d="m261.2 325.9c-36.1 0-65.2-29.1-65.2-65.1 0-36.1 29.1-65.2 65.2-65.2 36 0 65.1 29.1 65.1 65.2 0 36-29.1 65.1-65.1 65.1z"/>
</svg>